<svg xmlns="http://www.w3.org/2000/svg" viewBox="0 0 512 512">
<defs><linearGradient id="g" x1="80" y1="48" x2="430" y2="466" gradientUnits="userSpaceOnUse"><stop stop-color="#34e678"/><stop offset="1" stop-color="#128c4a"/></linearGradient></defs>
<rect width="512" height="512" rx="120" fill="#07100c"/>
<circle cx="256" cy="256" r="184" fill="url(#g)"/>
<path d="M355 245c0 72-66 128-144 102l-58 19 19-55c-34-75 22-162 107-162 43 0 76 16 98 43 13 16 20 34 20 53Z" fill="none" stroke="#06120b" stroke-width="26" stroke-linejoin="round"/>
<path d="M211 208c8 34 34 60 68 68 8 2 16-1 20-8l13-20 39 14" fill="none" stroke="#06120b" stroke-width="25" stroke-linecap="round" stroke-linejoin="round"/>
<circle cx="393" cy="119" r="50" fill="#07100c"/><path d="M368 119h50M393 94v50" stroke="#34e678" stroke-width="15" stroke-linecap="round"/>
</svg>